# xmcd CD database file generated by OrangeCD 6.2
#
# Track frame offsets:
#	150
#	10396
#	23622
#	36981
#	47315
#	65078
#	84645
#	96893
#	113228
#	129901
#	146023
#	157346
#	182397
#
# Disc length: 2614 seconds
#
# Revision: 0
# Processed by: cddbd v1.5.2PL0 Copyright (c) Steve Scherf et al.
# Submitted via: OrangeCD 6.2
#
DISCID=a90a340d
DTITLE=Ryan Adams and The Cardinals - Cardinology
DYEAR=2008
DGENRE=Country
TTITLE0=Born Into A Light
TTITLE1=Go Easy
TTITLE2=Fix It
TTITLE3=Magick
TTITLE4=Cobwebs
TTITLE5=Let Us Down Easy
TTITLE6=Crossed Out Name
TTITLE7=Natural Ghost
TTITLE8=Sink Ships
TTITLE9=Evergreen
TTITLE10=Like Yesterday
TTITLE11=Stop
TTITLE12=Memory Lane
EXTD=
EXTT0=
EXTT1=
EXTT2=
EXTT3=
EXTT4=
EXTT5=
EXTT6=
EXTT7=
EXTT8=
EXTT9=
EXTT10=
EXTT11=
EXTT12=
PLAYORDER=
